<?xml version="1.0" standalone="no"?>
<!DOCTYPE svg PUBLIC "-//W3C//DTD SVG 20010904//EN"
 "http://www.w3.org/TR/2001/REC-SVG-20010904/DTD/svg10.dtd">
<svg version="1.0" xmlns="http://www.w3.org/2000/svg"
 width="700.000000pt" height="700.000000pt" viewBox="0 0 700.000000 700.000000"
 preserveAspectRatio="xMidYMid meet">
<metadata>
Created by potrace 1.14, written by Peter Selinger 2001-2017
</metadata>
<g transform="translate(0.000000,700.000000) scale(0.100000,-0.100000)"
fill="#000000" stroke="none">
<path d="M596 6558 c-158 -14 -284 -75 -402 -193 -44 -44 -87 -94 -95 -110 -9
-17 -21 -40 -27 -52 -7 -13 -17 -32 -22 -43 -6 -11 -19 -57 -30 -103 -19 -80
-20 -128 -20 -2557 1 -2712 -3 -2537 60 -2677 93 -206 299 -356 520 -380 68
-7 5801 -7 5852 0 209 30 408 174 496 358 23 46 47 107 54 134 11 41 13 527
13 2570 l0 2520 -24 70 c-67 199 -203 348 -381 418 -134 52 16 50 -3050 51
-1576 1 -2900 -2 -2944 -6z m1552 -447 c36 -19 42 -51 41 -209 -1 -158 -10
-195 -51 -208 -12 -3 -388 -6 -837 -6 l-815 -1 -23 27 c-25 29 -26 39 -24 164
2 132 57 211 169 241 12 3 359 6 770 6 584 -1 752 -4 770 -14z m4288 -8 c51
-27 98 -80 115 -130 9 -29 12 -165 12 -559 0 -286 -3 -532 -7 -547 -14 -59
204 -55 -3051 -55 -1996 -1 -2999 2 -3016 9 -49 19 -52 38 -52 316 0 142 3
268 7 281 18 54 -13 52 1014 52 l949 0 201 303 c232 348 221 334 250 344 11 5
812 8 1779 8 l1758 -1 41 -21z m-2776 -1627 c555 -51 1054 -396 1305 -901 91
-183 145 -362 163 -535 14 -131 7 -396 -13 -482 -2 -13 -7 -34 -9 -48 -14 -89
-73 -264 -123 -368 -150 -309 -404 -577 -701 -739 -233 -127 -479 -192 -750
-197 -105 -2 -276 12 -347 28 -11 2 -42 9 -70 16 -157 35 -383 134 -526 230
-127 85 -279 225 -371 340 -39 50 -128 176 -128 183 0 2 -18 37 -40 77 -70
128 -147 349 -165 475 -3 23 -8 52 -11 65 -3 14 -8 99 -9 190 -7 297 50 540
186 800 252 481 745 812 1289 866 36 4 66 7 67 8 5 4 189 -2 253 -8z"/>
<path d="M3353 4039 c-15 -3 -57 -12 -93 -18 -274 -51 -549 -225 -721 -457
-157 -211 -239 -455 -241 -714 0 -63 8 -176 16 -215 31 -153 74 -265 155 -410
96 -171 303 -361 497 -458 61 -31 198 -82 206 -77 2 1 17 -4 33 -10 109 -43
396 -48 555 -10 240 57 418 157 590 329 428 431 472 1085 105 1573 -185 246
-482 420 -790 464 -65 9 -275 11 -312 3z m238 -341 c40 -18 83 -58 106 -102
22 -42 25 -130 5 -177 -40 -91 -108 -131 -248 -143 -100 -8 -188 -51 -263
-127 -78 -78 -117 -166 -127 -287 -4 -43 -14 -93 -24 -112 -38 -74 -115 -123
-194 -122 -62 0 -113 20 -155 61 -47 46 -64 94 -63 178 5 384 272 720 652 822
95 25 108 27 200 26 45 -1 89 -7 111 -17z"/>
</g>
</svg>
